<?xml version="1.0" encoding="UTF-8" standalone="no"?>
<!-- Created with Inkscape (http://www.inkscape.org/) -->

<svg
   xmlns:dc="http://purl.org/dc/elements/1.1/"
   xmlns:cc="http://creativecommons.org/ns#"
   xmlns:rdf="http://www.w3.org/1999/02/22-rdf-syntax-ns#"
   xmlns:svg="http://www.w3.org/2000/svg"
   xmlns="http://www.w3.org/2000/svg"
   xmlns:sodipodi="http://sodipodi.sourceforge.net/DTD/sodipodi-0.dtd"
   xmlns:inkscape="http://www.inkscape.org/namespaces/inkscape"
   width="100.26786"
   height="53.035713"
   id="svg2"
   version="1.1"
   inkscape:version="0.48.4 r9939"
   sodipodi:docname="logo.svg">
  <defs
     id="defs4" />
  <sodipodi:namedview
     id="base"
     pagecolor="#ffffff"
     bordercolor="#666666"
     borderopacity="1.0"
     inkscape:pageopacity="0.0"
     inkscape:pageshadow="2"
     inkscape:zoom="5.6"
     inkscape:cx="51.276112"
     inkscape:cy="20.164329"
     inkscape:document-units="px"
     inkscape:current-layer="layer1"
     showgrid="false"
     inkscape:window-width="1366"
     inkscape:window-height="705"
     inkscape:window-x="-8"
     inkscape:window-y="-8"
     inkscape:window-maximized="1"
     fit-margin-top="0"
     fit-margin-left="0"
     fit-margin-right="0"
     fit-margin-bottom="0" />
  <metadata
     id="metadata7">
    <rdf:RDF>
      <cc:Work
         rdf:about="">
        <dc:format>image/svg+xml</dc:format>
        <dc:type
           rdf:resource="http://purl.org/dc/dcmitype/StillImage" />
        <dc:title></dc:title>
      </cc:Work>
    </rdf:RDF>
  </metadata>
  <g
     inkscape:label="Layer 1"
     inkscape:groupmode="layer"
     id="layer1"
     transform="translate(-4.1309483,-5.0802535)">
    <path
       style="fill:#ffffff;fill-opacity:1;stroke:none"
       d="m 36.942139,10.205209 -7.880119,4.759609 -6.538215,4.311865 -4.017853,3.214286 -3.616074,3.214282 -3.124996,3.348217 -2.8125051,3.660717 -2.67857,4.062496 -1.2946414,3.035713 -0.84821,3.035715 -7.2e-6,3.258928 0.6696472,2.767855 1.3392886,1.875005 c 0,0 1.7714185,1.405607 2.8124985,1.964287 0.9798298,0.5258 3.1249944,1.339288 3.1249944,1.339288 l 1.785714,0.312496 45,0.35714 -4.538248,-2.951842 -3.57143,-3.329725 -2.25829,-3.455986 -1.145394,-3.477657 -0.262449,-3.644464 0.325575,-3.602997 0.494252,-2.667742 1.08226,-2.772343 2.362896,-3.718433 2.825573,-3.183648 3.435261,-2.215895 2.857137,-1.028372 c 0,0 0.622105,-0.173516 3.21429,-0.446429 2.260184,-0.237959 -1.734068,0.456333 -1.734068,0.456333 l -2.656247,1.406249 -2.931118,2.490097 -2.499993,2.700893 -1.808037,2.879462 -0.848216,2.611608 -0.267855,2.723215 0.200894,2.633927 0.758926,3.683036 1.138394,2.991069 1.718747,2.276794 3.39286,3.03571 6.25,3.03571 4.82143,1.60715 4.999995,1.25 3.92857,0.35714 16.07143,0.17857 2.384565,0.251615 1.985013,0.671879 2.332266,0.829725 3.47673,1.818211 -2.4053,-2.037325 -1.71175,-1.166131 -2.878811,-1.24009 -3.594021,-0.913594 -3.790544,-0.588021 -5.083868,-0.661979 -4.233409,-0.766591 -5.766591,-1.218433 -4.307377,-1.722575 -4.118902,-2.248396 -3.527162,-2.782248 c -0.752766,-1.428881 -2.189908,-2.957256 -2.510834,-4.476047 l -0.71429,-3.57143 0.126269,-3.718433 1.019129,-2.563134 1.617974,-1.95438 2.016591,-1.491706 2.289862,-1.029029 2.352988,-0.619584 2.857145,-0.26244 2.804839,0.357142 2.478333,1.20853 1.48087,1.754142 0.777425,1.890322 0.71429,2.67857 -0.17858,3.21429 -0.89285,2.67857 -1.78572,2.32143 -3.21428,1.96428 -3.03572,0.17858 -4.107135,-0.89287 1.933646,2.426042 1.816349,1.502538 c 0,0 2.4494,1.03894 3.75,1.25 1.11635,0.18116 3.455995,0.568211 3.455995,0.568211 0,0 2.939605,-0.103521 4.401145,-0.389641 1.41166,-0.27636 4.433646,-1.596306 4.433646,-1.596306 l 3.423504,-2.689404 2.14285,-2.5 1.42857,-2.67857 0.71429,-2.5 0.598845,-2.972585 -0.294006,-4.022339 -0.71428,-3.277423 -1.533182,-3.845632 c 0,0 -0.816567,-1.17481 -1.985947,-2.84631 -1.16938,-1.6715 -4.327187,-4.527421 -4.327187,-4.527421 0,0 -1.808293,-1.720583 -4.601383,-3.3297225 -2.79309,-1.609139 -7.14286,-2.678572 -7.14286,-2.678572 l -6.071425,-1.071428 -6.60714,-0.178572 -6.42857,0.714286 -5.17857,1.607143 -3.92858,2.142857 -3.57142,1.9642865 -2.5,1.964285 -3.035714,3.125 -2.410719,3.750001 -1.785718,4.107142 -1.071422,3.749997 -0.803576,3.482147 c 0.0093,-0.23939 -0.505949,2.946427 -0.714281,3.839283 l -3e-6,2.767854 0.714289,2.58929 -1.964292,-3.571427 -0.625001,-2.589289 -0.178566,-3.303567 0.267856,-3.214285 0.535711,-2.857146 0.561872,-2.567621 0.803566,-2.872462 1.536349,-2.663253 1.890325,-2.72004 2.346258,-2.413889 5.075825,-4.0286884 z"
       id="path3022"
       inkscape:connector-curvature="0"
       sodipodi:nodetypes="cccccccccccccscccccccccccccccsccccccccccccccccccccccccccccccccccccccccccccccccccccccscsccccccccczczcccccccccccccccccccccccccccc" />
  </g>
</svg>
